<?xml version="1.0" encoding="UTF-8"?>
<svg id="Layer_2" xmlns="http://www.w3.org/2000/svg" version="1.1" viewBox="0 0 1024 1024">
  <!-- Generator: Adobe Illustrator 30.3.0, SVG Export Plug-In . SVG Version: 2.1.3 Build 182)  -->
  <defs>
    <style>
      .st0 {
        fill: #020618;
        fill-rule: evenodd;
      }

      .st1 {
        fill: #fff;
      }
    </style>
  </defs>
  <path class="st0" d="M1024,512c0,411.2-100.8,512-512,512S0,923.2,0,512,100.8,0,512,0s512,100.8,512,512Z"/>
  <path class="st1" d="M824.4,596.8c-12-90.6-11.9-206.1,5.3-357.4-15.5,10.5-27.8,31-40.7,47.1l-29.6,37-32.8,38.9c-43.7,51.8-87.4,96.8-129.5,133-16.4,14.1-34.3,23-51.9,26-38.3,10.9-69.7-5.9-104-43.8-34.8-38.4-69.7-80.2-105.9-131.5l-109.2-155,1.1,24.2c12.7,154.6,9.4,275.9-6.9,371.7-45.2,20.8-86.4,43.8-123.5,73.1l41.8,111.6c.8,2.9,2.2,5.1,4,6.7,2,1.8,4.2,2.2,7.3,2.2h204.2c3.2-34.5,14.6-64.7,34.5-91.1,67.1-89.3,185.3-89.1,251.8,2.3,19.1,26.2,29.7,55.6,32.8,88.8l53.3.3h69.5s35.2.2,35.2.2l54-1.1,41.4-108.7c-28.8-30.5-63.1-53.5-102.4-74.4ZM794.1,464c1.3,45.2,2.7,82.3,7.4,119.7l-31.1-12.2,23.7-107.5ZM798.5,319.5l-5.3,77.7-34.6,169.1-19.8-6.6,40.6-218.6c5.6-8.8,9.9-15.6,19.1-21.5ZM756.8,364.2c1,0,3.5-.9,4.1.7l-34,190.3c-2.4,1.2-4.3.5-5.1.4-4.2-3.3-9.7-4-15.6-5.8l24.1-155.5c10.7-8.8,18.6-19.2,26.4-30ZM685.4,442.8c10.3-8.9,18.5-16.9,27.6-28.9l-19.5,131.8-21.5-3.7,13.4-99.2ZM667.9,461.5l-8.4,76.4-21.7-3.5,4.1-47.4,25.9-25.5ZM627.5,501l-2.6,31c-9.8-2.7-19.4-1.3-27.6-8.5l30.2-22.5ZM430.3,498.7c8.1,12,16,17.9,24.3,24.2.2.7,1.4,2.3,1.2,4l-23.7.8c-1.7-10.3-2.8-18-1.8-29ZM389.8,456.6l24.9,28.7,4.3,43.9c-8.1,2-12.9,4.4-23.1,4l-6.1-76.6ZM373,434.3l11.4,101.5-3.4.4-18.5,4.5-17.9-141.2c10,13.1,18.5,23.6,28.4,34.8ZM327,376.2l22.7,166.2-20.8,6-32.6-211,30.7,38.8ZM295.5,558.3l-37.8-209.3-2.6-65.9,21.6,26.4,40,242-21.2,6.8ZM255.8,423.7c2.2,2.5,2.3,4.5,3,8.3l17.7,90.5,7.8,40.2-40.7,14.4c6-47.6,12.6-95.6,12.2-153.5ZM119,674.9c28.2-20.4,57.6-37.9,93.1-54.1-7.6,37.6-20.4,67.3-34.4,94.6-8.9,15.3-18.4,27.9-29.8,39.7l-28.9-80.2ZM687.3,761.8c-15.7-101.1-91.6-166.2-183.9-162.2-48.3,4.1-91.9,26.5-122.9,66.6-21.1,27.2-35.6,57.1-40.8,95.6h-165.6c-1,1.9-3.6,0-3.5-1.7,1.9.6,2,.4,3.1-1,28.9-36.2,49-86.6,62.5-149.8l27.3-10.5c74.7-28.7,154.5-46.3,238.4-47.7l27.2-.5c33.5,2.6,65.9,5.5,97.9,10.1l18.7,2.7c56,11.9,108.8,28,160.5,53.2,11.3,63.2,27.4,109.7,53.5,144.7l-172.4.4ZM881.9,747.1c-.6,1.6-2.9,3.3-3.3,3.2-.4-.1-1.2-.9-1.9-1.8-22.6-28.9-36.9-68.3-46.9-117.6,28.5,15.6,53,32.5,75.6,52.6l-23.4,63.5Z"/>
</svg>